<?xml version="1.0" encoding="UTF-8"?>
<!DOCTYPE svg PUBLIC "-//W3C//DTD SVG 1.1//EN" "http://www.w3.org/Graphics/SVG/1.1/DTD/svg11.dtd">
<!-- Creator: CorelDRAW 2020 (64-Bit) -->
<svg xmlns="http://www.w3.org/2000/svg" xml:space="preserve" width="50mm" height="70mm" version="1.1" style="shape-rendering:geometricPrecision; text-rendering:geometricPrecision; image-rendering:optimizeQuality; fill-rule:evenodd; clip-rule:evenodd"
viewBox="0 0 5000 7000"
 xmlns:xlink="http://www.w3.org/1999/xlink"
 xmlns:xodm="http://www.corel.com/coreldraw/odm/2003">
 <defs>
  <style type="text/css">
   <![CDATA[
    .str0 {stroke:#2B2A29;stroke-width:20;stroke-miterlimit:22.9256}
    .fil0 {fill:none}
   ]]>
  </style>
 </defs>
 <g id="Слой_x0020_1">
  <metadata id="CorelCorpID_0Corel-Layer"/>
  <path class="fil0 str0" d="M849.65 4117.06c33.8,13.23 100.83,53.8 204.9,88.19 104.07,34.4 245.18,62.62 492.13,75.85 246.94,13.23 599.72,11.46 872.24,6.17 272.52,-5.29 464.79,-14.11 623.79,-42.11 159,-28 284.74,-75.18 348.05,-98.53 63.31,-23.35 64.18,-22.86 64.79,-18.41 0.62,4.45 0.98,12.86 2.05,127.05 1.07,114.19 2.87,334.15 -20.93,461.77 -23.8,127.62 -73.19,162.9 -129.64,180.54 -56.44,17.64 -119.94,17.64 -502.71,17.64 -382.76,0 -1084.78,0 -1447.75,-3.21 -362.98,-3.2 -386.91,-9.61 -419.54,-25.49 -32.63,-15.87 -73.97,-41.21 -98.17,-111.21 -24.2,-69.99 -31.25,-184.65 -32.42,-299.3 -1.18,-114.65 3.53,-229.31 6.18,-293.69 2.64,-64.38 3.22,-78.49 37.03,-65.26z"/>
  <path class="fil0 str0" d="M819.26 4120.99c6.12,-23.65 12.23,-47.31 54.98,-107.64 42.75,-60.33 122.12,-157.35 188.27,-204.98 66.15,-47.62 119.06,-45.85 476.25,-44.97 357.19,0.88 1018.65,0.88 1352.9,3.52 334.26,2.65 341.32,7.94 378.36,55.56 37.04,47.63 104.07,137.59 140.02,195.92 35.96,58.33 40.84,85.03 45.72,111.73"/>
  <circle class="fil0 str0" cx="4007.37" cy="2695.91" r="119.06"/>
  <circle class="fil0 str0" cx="4007.37" cy="2695.91" r="234.16"/>
  <rect class="fil0 str0" x="3646.07" y="2013.3" width="730.25" height="2952.76" rx="380" ry="404.66"/>
  <circle class="fil0 str0" cx="4176.71" cy="3091.33" r="55.56"/>
  <circle class="fil0 str0" cx="3856.71" cy="3091.33" r="55.56"/>
 </g>
</svg>
